# xmcd CD database file
#
# Track frame offsets:
#	150
#	6132
#	20205
#	33342
#	46185
#	60042
#	72830
#	91077
#	99137
#	111647
#	129610
#	148482
#	167367
#	176400
#	193217
#	205352
#	218432
#
# Disc length: 3098 seconds
#
# Revision: 0
# Processed by: cddbd v1.5.1PL0 Copyright (c) Steve Scherf et al.
# Submitted via: CDex 1.51
#
DISCID=e70c1811
DTITLE=デキシード・ザ・エモンズ - エレキの若大将
DYEAR=1900
DGENRE=Rock
TTITLE0=デキシード・ザ・エモンズのテーマ＃1
TTITLE1=エレキの若大将
TTITLE2=ドンチュー・ジャスト・ノウ・イット
TTITLE3=フィッシィ・フィッシィ・シェイク
TTITLE4=誰かのノック
TTITLE5=夢見る散歩道」
TTITLE6=真っ白な雨上がり
TTITLE7=通りを渡って
TTITLE8=ブラック・ルーム
TTITLE9=サベセ・ラ
TTITLE10=ブランコ
TTITLE11=ヨーゼフの嘆き
TTITLE12=サーカスはどこに
TTITLE13=デュウ・ザ・リズム＆ブルウス
TTITLE14=デキシード・ザ・エモンズのテーマ＃3
TTITLE15=ダディ・ローリング・ストーン
TTITLE16=恋のブーガルー
EXTD=
EXTT0=
EXTT1=
EXTT2=
EXTT3=
EXTT4=
EXTT5=
EXTT6=
EXTT7=
EXTT8=
EXTT9=
EXTT10=
EXTT11=
EXTT12=
EXTT13=
EXTT14=
EXTT15=
EXTT16=
PLAYORDER=
